<?xml version="1.0" standalone="no"?>
<!DOCTYPE svg PUBLIC "-//W3C//DTD SVG 20010904//EN"
 "http://www.w3.org/TR/2001/REC-SVG-20010904/DTD/svg10.dtd">
<svg version="1.0" xmlns="http://www.w3.org/2000/svg"
 width="300.000000pt" height="300.000000pt" viewBox="0 0 300.000000 300.000000"
 preserveAspectRatio="xMidYMid meet">
<metadata>
Created by potrace 1.11, written by Peter Selinger 2001-2013
</metadata>
<g transform="translate(0.000000,300.000000) scale(0.100000,-0.100000)"
fill="#000000" stroke="none">
<path d="M0 1500 l0 -1490 1495 0 1495 0 0 1490 0 1490 -1495 0 -1495 0 0
-1490z m873 1086 c145 -93 295 -136 497 -143 209 -8 378 26 541 107 l58 29 20
-32 c27 -45 159 -170 264 -251 48 -37 87 -70 87 -73 0 -3 -12 -19 -27 -37 -54
-64 -53 -53 -53 -637 l0 -541 27 -45 c16 -25 40 -59 55 -77 l27 -33 -81 -23
c-196 -57 -374 -174 -474 -313 l-20 -28 -77 45 c-238 141 -383 186 -528 166
-155 -22 -344 -173 -429 -344 l-30 -59 0 84 c0 137 35 237 119 342 80 99 184
160 315 184 76 14 84 18 127 63 45 47 59 80 74 173 l6 37 -74 0 -73 0 -18 -55
c-23 -74 -95 -152 -183 -197 -79 -41 -113 -53 -113 -40 0 6 21 38 48 72 88
114 82 92 82 318 0 170 -2 204 -15 208 -24 10 -146 -15 -204 -42 -30 -13 -56
-23 -58 -21 -8 8 19 105 37 135 25 41 67 66 152 92 57 17 68 24 68 43 0 12 3
40 7 61 l6 39 -57 -7 c-70 -8 -119 -27 -167 -66 -20 -16 -39 -26 -43 -23 -3 4
-6 25 -6 48 0 82 55 131 202 180 l76 26 7 42 c11 71 49 140 115 210 35 37 61
70 58 72 -3 3 -38 16 -79 30 -168 57 -303 170 -379 316 l-44 84 50 -41 c27
-23 75 -58 107 -78z"/>
<path d="M1819 2259 c-20 -11 -69 -23 -110 -27 l-73 -7 -29 -57 c-26 -49 -30
-71 -35 -167 l-5 -111 49 -22 c38 -17 68 -22 139 -22 94 -1 234 27 240 48 2 6
6 68 10 138 l6 126 -75 61 c-41 34 -76 60 -78 60 -2 -1 -19 -10 -39 -20z"/>
<path d="M1330 2169 c-27 -33 -50 -64 -50 -70 0 -5 15 -9 33 -9 17 0 48 -3 67
-6 34 -5 36 -3 60 43 14 26 39 57 57 69 18 12 29 24 26 28 -4 3 -37 6 -74 6
l-68 0 -51 -61z"/>
<path d="M1240 1650 l0 -350 65 0 65 0 0 350 0 350 -65 0 -65 0 0 -350z"/>
<path d="M1580 1634 l0 -125 63 8 c34 4 122 8 195 8 l132 0 0 118 0 117 -27
-7 c-35 -10 -253 -10 -315 -1 l-48 8 0 -126z"/>
<path d="M1673 1415 c-39 -7 -76 -16 -82 -20 -6 -3 -11 -34 -11 -68 0 -122
-54 -260 -137 -348 l-46 -49 32 0 c58 0 185 -31 250 -61 35 -16 67 -29 72 -29
4 0 43 32 86 70 54 49 91 75 121 83 l42 11 0 197 c0 226 12 203 -110 219 -95
12 -128 11 -217 -5z"/>
</g>
</svg>
